<mxfile host="Electron" agent="Mozilla/5.0 (Windows NT 10.0; Win64; x64) AppleWebKit/537.36 (KHTML, like Gecko) draw.io/25.0.2 Chrome/128.0.6613.186 Electron/32.2.5 Safari/537.36" version="25.0.2" pages="7">
  <diagram name="main" id="XKgMwT5nFCnaDo6erPQU">
    <mxGraphModel dx="1290" dy="717" grid="1" gridSize="10" guides="1" tooltips="1" connect="1" arrows="1" fold="1" page="1" pageScale="1" pageWidth="827" pageHeight="1169" math="0" shadow="0">
      <root>
        <mxCell id="0" />
        <mxCell id="1" parent="0" />
        <mxCell id="nnHxRyUtEaMuZjqeT8cc-1" value="" style="edgeStyle=orthogonalEdgeStyle;rounded=0;orthogonalLoop=1;jettySize=auto;html=1;" edge="1" parent="1" source="nnHxRyUtEaMuZjqeT8cc-2" target="nnHxRyUtEaMuZjqeT8cc-4">
          <mxGeometry relative="1" as="geometry" />
        </mxCell>
        <mxCell id="nnHxRyUtEaMuZjqeT8cc-2" value="Начало" style="ellipse;whiteSpace=wrap;html=1;" vertex="1" parent="1">
          <mxGeometry x="340" y="40" width="120" height="40" as="geometry" />
        </mxCell>
        <mxCell id="nnHxRyUtEaMuZjqeT8cc-3" value="" style="edgeStyle=orthogonalEdgeStyle;rounded=0;orthogonalLoop=1;jettySize=auto;html=1;" edge="1" parent="1" source="nnHxRyUtEaMuZjqeT8cc-4" target="nnHxRyUtEaMuZjqeT8cc-8">
          <mxGeometry relative="1" as="geometry" />
        </mxCell>
        <mxCell id="nnHxRyUtEaMuZjqeT8cc-4" value="int main()" style="shape=process;whiteSpace=wrap;html=1;backgroundOutline=1;" vertex="1" parent="1">
          <mxGeometry x="340" y="120" width="120" height="40" as="geometry" />
        </mxCell>
        <mxCell id="nnHxRyUtEaMuZjqeT8cc-5" value="" style="endArrow=none;dashed=1;html=1;rounded=0;" edge="1" parent="1" target="nnHxRyUtEaMuZjqeT8cc-6">
          <mxGeometry width="50" height="50" relative="1" as="geometry">
            <mxPoint x="400" y="100" as="sourcePoint" />
            <mxPoint x="560" y="100" as="targetPoint" />
          </mxGeometry>
        </mxCell>
        <mxCell id="nnHxRyUtEaMuZjqeT8cc-6" value="&lt;div&gt;#include &amp;lt;iostream&amp;gt;&lt;/div&gt;&lt;div&gt;#include &amp;lt;clocale&amp;gt;&lt;/div&gt;&lt;div&gt;#include &amp;lt;fstream&amp;gt;&lt;/div&gt;&lt;div&gt;using namespace std;&lt;/div&gt;&lt;div&gt;&lt;br&gt;&lt;/div&gt;&lt;div&gt;void show_arr(int* arr, int start, int end);&lt;/div&gt;&lt;div&gt;int get_arr_size(string filename);&lt;/div&gt;&lt;div&gt;void fill_arr(int* arr, int size, string filename);&lt;/div&gt;&lt;div&gt;void balanced_sort(int* arr, int start, int end);&lt;/div&gt;&lt;div&gt;void merge(int* arr, int start, int end, int mid);&lt;/div&gt;&lt;div&gt;void arr_to_file(int* arr, int size, string filename);&lt;/div&gt;" style="strokeWidth=2;html=1;shape=mxgraph.flowchart.annotation_1;align=left;pointerEvents=1;" vertex="1" parent="1">
          <mxGeometry x="520" y="20" width="50" height="160" as="geometry" />
        </mxCell>
        <mxCell id="nnHxRyUtEaMuZjqeT8cc-7" value="" style="edgeStyle=orthogonalEdgeStyle;rounded=0;orthogonalLoop=1;jettySize=auto;html=1;" edge="1" parent="1" source="nnHxRyUtEaMuZjqeT8cc-8" target="nnHxRyUtEaMuZjqeT8cc-11">
          <mxGeometry relative="1" as="geometry" />
        </mxCell>
        <mxCell id="nnHxRyUtEaMuZjqeT8cc-8" value="setlocale(LC_ALL, &quot;RU&quot;);" style="whiteSpace=wrap;html=1;" vertex="1" parent="1">
          <mxGeometry x="330" y="200" width="140" height="40" as="geometry" />
        </mxCell>
        <mxCell id="nnHxRyUtEaMuZjqeT8cc-9" value="{" style="text;html=1;align=center;verticalAlign=middle;resizable=0;points=[];autosize=1;strokeColor=none;fillColor=none;" vertex="1" parent="1">
          <mxGeometry x="370" y="160" width="30" height="30" as="geometry" />
        </mxCell>
        <mxCell id="nnHxRyUtEaMuZjqeT8cc-10" value="" style="edgeStyle=orthogonalEdgeStyle;rounded=0;orthogonalLoop=1;jettySize=auto;html=1;" edge="1" parent="1" source="nnHxRyUtEaMuZjqeT8cc-11" target="nnHxRyUtEaMuZjqeT8cc-13">
          <mxGeometry relative="1" as="geometry" />
        </mxCell>
        <mxCell id="nnHxRyUtEaMuZjqeT8cc-11" value="int size = get_arr_size(&quot;F1.txt&quot;);" style="whiteSpace=wrap;html=1;" vertex="1" parent="1">
          <mxGeometry x="315" y="260" width="170" height="40" as="geometry" />
        </mxCell>
        <mxCell id="nnHxRyUtEaMuZjqeT8cc-12" value="" style="edgeStyle=orthogonalEdgeStyle;rounded=0;orthogonalLoop=1;jettySize=auto;html=1;" edge="1" parent="1" source="nnHxRyUtEaMuZjqeT8cc-13" target="nnHxRyUtEaMuZjqeT8cc-15">
          <mxGeometry relative="1" as="geometry" />
        </mxCell>
        <mxCell id="nnHxRyUtEaMuZjqeT8cc-13" value="int* arr = new int[size];" style="whiteSpace=wrap;html=1;" vertex="1" parent="1">
          <mxGeometry x="315" y="320" width="170" height="40" as="geometry" />
        </mxCell>
        <mxCell id="nnHxRyUtEaMuZjqeT8cc-14" value="" style="edgeStyle=orthogonalEdgeStyle;rounded=0;orthogonalLoop=1;jettySize=auto;html=1;" edge="1" parent="1" source="nnHxRyUtEaMuZjqeT8cc-15" target="nnHxRyUtEaMuZjqeT8cc-17">
          <mxGeometry relative="1" as="geometry" />
        </mxCell>
        <mxCell id="nnHxRyUtEaMuZjqeT8cc-15" value="fill_arr(arr, size, &quot;F1.txt&quot;);" style="whiteSpace=wrap;html=1;" vertex="1" parent="1">
          <mxGeometry x="315" y="380" width="170" height="40" as="geometry" />
        </mxCell>
        <mxCell id="nnHxRyUtEaMuZjqeT8cc-16" value="" style="edgeStyle=orthogonalEdgeStyle;rounded=0;orthogonalLoop=1;jettySize=auto;html=1;" edge="1" parent="1" source="nnHxRyUtEaMuZjqeT8cc-17" target="nnHxRyUtEaMuZjqeT8cc-19">
          <mxGeometry relative="1" as="geometry" />
        </mxCell>
        <mxCell id="nnHxRyUtEaMuZjqeT8cc-17" value="show_arr(arr, 0, size - 1);" style="whiteSpace=wrap;html=1;" vertex="1" parent="1">
          <mxGeometry x="315" y="440" width="170" height="40" as="geometry" />
        </mxCell>
        <mxCell id="nnHxRyUtEaMuZjqeT8cc-18" value="" style="edgeStyle=orthogonalEdgeStyle;rounded=0;orthogonalLoop=1;jettySize=auto;html=1;" edge="1" parent="1" source="nnHxRyUtEaMuZjqeT8cc-19" target="nnHxRyUtEaMuZjqeT8cc-21">
          <mxGeometry relative="1" as="geometry" />
        </mxCell>
        <mxCell id="nnHxRyUtEaMuZjqeT8cc-19" value="balanced_sort(arr, 0, size - 1);" style="whiteSpace=wrap;html=1;" vertex="1" parent="1">
          <mxGeometry x="315" y="500" width="170" height="40" as="geometry" />
        </mxCell>
        <mxCell id="nnHxRyUtEaMuZjqeT8cc-20" value="" style="edgeStyle=orthogonalEdgeStyle;rounded=0;orthogonalLoop=1;jettySize=auto;html=1;" edge="1" parent="1" source="nnHxRyUtEaMuZjqeT8cc-21" target="nnHxRyUtEaMuZjqeT8cc-23">
          <mxGeometry relative="1" as="geometry" />
        </mxCell>
        <mxCell id="nnHxRyUtEaMuZjqeT8cc-21" value="show_arr(arr, 0, size - 1);" style="whiteSpace=wrap;html=1;" vertex="1" parent="1">
          <mxGeometry x="315" y="560" width="170" height="40" as="geometry" />
        </mxCell>
        <mxCell id="nnHxRyUtEaMuZjqeT8cc-22" style="edgeStyle=orthogonalEdgeStyle;rounded=0;orthogonalLoop=1;jettySize=auto;html=1;entryX=0.5;entryY=0;entryDx=0;entryDy=0;" edge="1" parent="1" source="nnHxRyUtEaMuZjqeT8cc-23" target="nnHxRyUtEaMuZjqeT8cc-24">
          <mxGeometry relative="1" as="geometry" />
        </mxCell>
        <mxCell id="nnHxRyUtEaMuZjqeT8cc-23" value="arr_to_file(arr, size, &quot;F2.txt&quot;);" style="whiteSpace=wrap;html=1;" vertex="1" parent="1">
          <mxGeometry x="315" y="620" width="170" height="40" as="geometry" />
        </mxCell>
        <mxCell id="nnHxRyUtEaMuZjqeT8cc-24" value="return 0;" style="ellipse;whiteSpace=wrap;html=1;" vertex="1" parent="1">
          <mxGeometry x="340" y="680" width="120" height="40" as="geometry" />
        </mxCell>
        <mxCell id="nnHxRyUtEaMuZjqeT8cc-25" value="}" style="text;html=1;align=center;verticalAlign=middle;resizable=0;points=[];autosize=1;strokeColor=none;fillColor=none;" vertex="1" parent="1">
          <mxGeometry x="400" y="720" width="30" height="30" as="geometry" />
        </mxCell>
      </root>
    </mxGraphModel>
  </diagram>
  <diagram id="hqTJWlCjowxUqYE6fEBB" name="show_arr">
    <mxGraphModel dx="1290" dy="717" grid="1" gridSize="10" guides="1" tooltips="1" connect="1" arrows="1" fold="1" page="1" pageScale="1" pageWidth="827" pageHeight="1169" math="0" shadow="0">
      <root>
        <mxCell id="0" />
        <mxCell id="1" parent="0" />
        <mxCell id="dtl5esGQYNeW7rWlfnVL-1" value="" style="edgeStyle=orthogonalEdgeStyle;rounded=0;orthogonalLoop=1;jettySize=auto;html=1;" edge="1" parent="1" source="dtl5esGQYNeW7rWlfnVL-2" target="dtl5esGQYNeW7rWlfnVL-4">
          <mxGeometry relative="1" as="geometry" />
        </mxCell>
        <mxCell id="dtl5esGQYNeW7rWlfnVL-2" value="void show_arr(int* arr, int start, int end)" style="shape=process;whiteSpace=wrap;html=1;backgroundOutline=1;size=0.04;" vertex="1" parent="1">
          <mxGeometry x="280" y="40" width="240" height="40" as="geometry" />
        </mxCell>
        <mxCell id="dtl5esGQYNeW7rWlfnVL-3" value="" style="edgeStyle=orthogonalEdgeStyle;rounded=0;orthogonalLoop=1;jettySize=auto;html=1;" edge="1" parent="1" source="dtl5esGQYNeW7rWlfnVL-4" target="dtl5esGQYNeW7rWlfnVL-8">
          <mxGeometry relative="1" as="geometry" />
        </mxCell>
        <mxCell id="dtl5esGQYNeW7rWlfnVL-4" value="cout &amp;lt;&amp;lt; &#39;{&#39;;" style="shape=parallelogram;perimeter=parallelogramPerimeter;whiteSpace=wrap;html=1;fixedSize=1;" vertex="1" parent="1">
          <mxGeometry x="340" y="120" width="120" height="40" as="geometry" />
        </mxCell>
        <mxCell id="dtl5esGQYNeW7rWlfnVL-5" value="{" style="text;html=1;align=center;verticalAlign=middle;resizable=0;points=[];autosize=1;strokeColor=none;fillColor=none;" vertex="1" parent="1">
          <mxGeometry x="375" y="78" width="30" height="30" as="geometry" />
        </mxCell>
        <mxCell id="dtl5esGQYNeW7rWlfnVL-6" value="" style="edgeStyle=orthogonalEdgeStyle;rounded=0;orthogonalLoop=1;jettySize=auto;html=1;" edge="1" parent="1" source="dtl5esGQYNeW7rWlfnVL-8" target="dtl5esGQYNeW7rWlfnVL-10">
          <mxGeometry relative="1" as="geometry" />
        </mxCell>
        <mxCell id="dtl5esGQYNeW7rWlfnVL-7" value="" style="edgeStyle=orthogonalEdgeStyle;rounded=0;orthogonalLoop=1;jettySize=auto;html=1;" edge="1" parent="1" source="dtl5esGQYNeW7rWlfnVL-8" target="dtl5esGQYNeW7rWlfnVL-13">
          <mxGeometry relative="1" as="geometry" />
        </mxCell>
        <mxCell id="dtl5esGQYNeW7rWlfnVL-8" value="for (int i = start; i &amp;lt;= end; i++)" style="shape=hexagon;perimeter=hexagonPerimeter2;whiteSpace=wrap;html=1;fixedSize=1;" vertex="1" parent="1">
          <mxGeometry x="310" y="180" width="180" height="40" as="geometry" />
        </mxCell>
        <mxCell id="dtl5esGQYNeW7rWlfnVL-9" style="edgeStyle=orthogonalEdgeStyle;rounded=0;orthogonalLoop=1;jettySize=auto;html=1;entryX=0;entryY=0.5;entryDx=0;entryDy=0;" edge="1" parent="1" source="dtl5esGQYNeW7rWlfnVL-10" target="dtl5esGQYNeW7rWlfnVL-8">
          <mxGeometry relative="1" as="geometry">
            <Array as="points">
              <mxPoint x="400" y="320" />
              <mxPoint x="255" y="320" />
              <mxPoint x="255" y="200" />
            </Array>
          </mxGeometry>
        </mxCell>
        <mxCell id="dtl5esGQYNeW7rWlfnVL-10" value="cout &amp;lt;&amp;lt; arr[i] &amp;lt;&amp;lt; ((i == end) ? &quot;}\n&quot; : &quot;, &quot;);" style="shape=parallelogram;perimeter=parallelogramPerimeter;whiteSpace=wrap;html=1;fixedSize=1;" vertex="1" parent="1">
          <mxGeometry x="275" y="260" width="250" height="40" as="geometry" />
        </mxCell>
        <mxCell id="dtl5esGQYNeW7rWlfnVL-11" value="1" style="text;html=1;align=center;verticalAlign=middle;resizable=0;points=[];autosize=1;strokeColor=none;fillColor=none;" vertex="1" parent="1">
          <mxGeometry x="399" y="230" width="30" height="30" as="geometry" />
        </mxCell>
        <mxCell id="dtl5esGQYNeW7rWlfnVL-12" style="edgeStyle=orthogonalEdgeStyle;rounded=0;orthogonalLoop=1;jettySize=auto;html=1;entryX=0.5;entryY=0;entryDx=0;entryDy=0;" edge="1" parent="1" source="dtl5esGQYNeW7rWlfnVL-13" target="dtl5esGQYNeW7rWlfnVL-15">
          <mxGeometry relative="1" as="geometry" />
        </mxCell>
        <mxCell id="dtl5esGQYNeW7rWlfnVL-13" value="cout &amp;lt;&amp;lt; endl;" style="shape=parallelogram;perimeter=parallelogramPerimeter;whiteSpace=wrap;html=1;fixedSize=1;" vertex="1" parent="1">
          <mxGeometry x="580" y="240" width="120" height="40" as="geometry" />
        </mxCell>
        <mxCell id="dtl5esGQYNeW7rWlfnVL-14" value="0" style="text;html=1;align=center;verticalAlign=middle;resizable=0;points=[];autosize=1;strokeColor=none;fillColor=none;" vertex="1" parent="1">
          <mxGeometry x="615" y="178" width="30" height="30" as="geometry" />
        </mxCell>
        <mxCell id="dtl5esGQYNeW7rWlfnVL-15" value="return;" style="ellipse;whiteSpace=wrap;html=1;" vertex="1" parent="1">
          <mxGeometry x="580" y="300" width="120" height="40" as="geometry" />
        </mxCell>
        <mxCell id="dtl5esGQYNeW7rWlfnVL-16" value="}" style="text;html=1;align=center;verticalAlign=middle;resizable=0;points=[];autosize=1;strokeColor=none;fillColor=none;" vertex="1" parent="1">
          <mxGeometry x="635" y="338" width="30" height="30" as="geometry" />
        </mxCell>
      </root>
    </mxGraphModel>
  </diagram>
  <diagram id="xXrFc5Auh0THM96sPEkB" name="get_arr_size">
    <mxGraphModel dx="1290" dy="717" grid="1" gridSize="10" guides="1" tooltips="1" connect="1" arrows="1" fold="1" page="1" pageScale="1" pageWidth="827" pageHeight="1169" math="0" shadow="0">
      <root>
        <mxCell id="0" />
        <mxCell id="1" parent="0" />
        <mxCell id="Ji82xjhjLVvBHX5v9r-5-1" value="" style="edgeStyle=orthogonalEdgeStyle;rounded=0;orthogonalLoop=1;jettySize=auto;html=1;" edge="1" parent="1" source="Ji82xjhjLVvBHX5v9r-5-2" target="Ji82xjhjLVvBHX5v9r-5-4">
          <mxGeometry relative="1" as="geometry" />
        </mxCell>
        <mxCell id="Ji82xjhjLVvBHX5v9r-5-2" value="int get_arr_size(string filename)" style="shape=process;whiteSpace=wrap;html=1;backgroundOutline=1;size=0.047619047619047616;" vertex="1" parent="1">
          <mxGeometry x="300" y="40" width="200" height="40" as="geometry" />
        </mxCell>
        <mxCell id="Ji82xjhjLVvBHX5v9r-5-3" value="" style="edgeStyle=orthogonalEdgeStyle;rounded=0;orthogonalLoop=1;jettySize=auto;html=1;" edge="1" parent="1" source="Ji82xjhjLVvBHX5v9r-5-4" target="Ji82xjhjLVvBHX5v9r-5-7">
          <mxGeometry relative="1" as="geometry" />
        </mxCell>
        <mxCell id="Ji82xjhjLVvBHX5v9r-5-4" value="ifstream fin(filename);" style="whiteSpace=wrap;html=1;" vertex="1" parent="1">
          <mxGeometry x="340" y="120" width="120" height="40" as="geometry" />
        </mxCell>
        <mxCell id="Ji82xjhjLVvBHX5v9r-5-5" value="{" style="text;html=1;align=center;verticalAlign=middle;resizable=0;points=[];autosize=1;strokeColor=none;fillColor=none;" vertex="1" parent="1">
          <mxGeometry x="370" y="80" width="30" height="30" as="geometry" />
        </mxCell>
        <mxCell id="Ji82xjhjLVvBHX5v9r-5-6" value="" style="edgeStyle=orthogonalEdgeStyle;rounded=0;orthogonalLoop=1;jettySize=auto;html=1;" edge="1" parent="1" source="Ji82xjhjLVvBHX5v9r-5-7" target="Ji82xjhjLVvBHX5v9r-5-9">
          <mxGeometry relative="1" as="geometry" />
        </mxCell>
        <mxCell id="Ji82xjhjLVvBHX5v9r-5-7" value="int count = 0;" style="whiteSpace=wrap;html=1;" vertex="1" parent="1">
          <mxGeometry x="340" y="180" width="120" height="40" as="geometry" />
        </mxCell>
        <mxCell id="Ji82xjhjLVvBHX5v9r-5-8" value="" style="edgeStyle=orthogonalEdgeStyle;rounded=0;orthogonalLoop=1;jettySize=auto;html=1;" edge="1" parent="1" source="Ji82xjhjLVvBHX5v9r-5-9" target="Ji82xjhjLVvBHX5v9r-5-12">
          <mxGeometry relative="1" as="geometry" />
        </mxCell>
        <mxCell id="Ji82xjhjLVvBHX5v9r-5-9" value="int t;" style="whiteSpace=wrap;html=1;" vertex="1" parent="1">
          <mxGeometry x="340" y="240" width="120" height="40" as="geometry" />
        </mxCell>
        <mxCell id="Ji82xjhjLVvBHX5v9r-5-10" value="" style="edgeStyle=orthogonalEdgeStyle;rounded=0;orthogonalLoop=1;jettySize=auto;html=1;" edge="1" parent="1" source="Ji82xjhjLVvBHX5v9r-5-12" target="Ji82xjhjLVvBHX5v9r-5-14">
          <mxGeometry relative="1" as="geometry" />
        </mxCell>
        <mxCell id="Ji82xjhjLVvBHX5v9r-5-11" value="" style="edgeStyle=orthogonalEdgeStyle;rounded=0;orthogonalLoop=1;jettySize=auto;html=1;entryX=0.5;entryY=0;entryDx=0;entryDy=0;" edge="1" parent="1" source="Ji82xjhjLVvBHX5v9r-5-12" target="Ji82xjhjLVvBHX5v9r-5-17">
          <mxGeometry relative="1" as="geometry" />
        </mxCell>
        <mxCell id="Ji82xjhjLVvBHX5v9r-5-12" value="while (fin &amp;gt;&amp;gt; t)" style="rhombus;whiteSpace=wrap;html=1;" vertex="1" parent="1">
          <mxGeometry x="340" y="320" width="120" height="40" as="geometry" />
        </mxCell>
        <mxCell id="Ji82xjhjLVvBHX5v9r-5-13" style="edgeStyle=orthogonalEdgeStyle;rounded=0;orthogonalLoop=1;jettySize=auto;html=1;" edge="1" parent="1" source="Ji82xjhjLVvBHX5v9r-5-14">
          <mxGeometry relative="1" as="geometry">
            <mxPoint x="400" y="300" as="targetPoint" />
            <Array as="points">
              <mxPoint x="400" y="460" />
              <mxPoint x="310" y="460" />
              <mxPoint x="310" y="300" />
            </Array>
          </mxGeometry>
        </mxCell>
        <mxCell id="Ji82xjhjLVvBHX5v9r-5-14" value="count++;" style="whiteSpace=wrap;html=1;" vertex="1" parent="1">
          <mxGeometry x="340" y="400" width="120" height="40" as="geometry" />
        </mxCell>
        <mxCell id="Ji82xjhjLVvBHX5v9r-5-15" value="1" style="text;html=1;align=center;verticalAlign=middle;resizable=0;points=[];autosize=1;strokeColor=none;fillColor=none;" vertex="1" parent="1">
          <mxGeometry x="399" y="370" width="30" height="30" as="geometry" />
        </mxCell>
        <mxCell id="Ji82xjhjLVvBHX5v9r-5-16" style="edgeStyle=orthogonalEdgeStyle;rounded=0;orthogonalLoop=1;jettySize=auto;html=1;entryX=0.5;entryY=0;entryDx=0;entryDy=0;" edge="1" parent="1" source="Ji82xjhjLVvBHX5v9r-5-17" target="Ji82xjhjLVvBHX5v9r-5-19">
          <mxGeometry relative="1" as="geometry" />
        </mxCell>
        <mxCell id="Ji82xjhjLVvBHX5v9r-5-17" value="fin.close();" style="whiteSpace=wrap;html=1;" vertex="1" parent="1">
          <mxGeometry x="540" y="360" width="120" height="40" as="geometry" />
        </mxCell>
        <mxCell id="Ji82xjhjLVvBHX5v9r-5-18" value="0" style="text;html=1;align=center;verticalAlign=middle;resizable=0;points=[];autosize=1;strokeColor=none;fillColor=none;" vertex="1" parent="1">
          <mxGeometry x="575" y="318" width="30" height="30" as="geometry" />
        </mxCell>
        <mxCell id="Ji82xjhjLVvBHX5v9r-5-19" value="return count;" style="ellipse;whiteSpace=wrap;html=1;" vertex="1" parent="1">
          <mxGeometry x="540" y="420" width="120" height="40" as="geometry" />
        </mxCell>
        <mxCell id="Ji82xjhjLVvBHX5v9r-5-20" value="}" style="text;html=1;align=center;verticalAlign=middle;resizable=0;points=[];autosize=1;strokeColor=none;fillColor=none;" vertex="1" parent="1">
          <mxGeometry x="600" y="460" width="30" height="30" as="geometry" />
        </mxCell>
      </root>
    </mxGraphModel>
  </diagram>
  <diagram id="fNVeVnrEeeDiC0VIlWmx" name="fill_arr">
    <mxGraphModel dx="1290" dy="717" grid="1" gridSize="10" guides="1" tooltips="1" connect="1" arrows="1" fold="1" page="1" pageScale="1" pageWidth="827" pageHeight="1169" math="0" shadow="0">
      <root>
        <mxCell id="0" />
        <mxCell id="1" parent="0" />
        <mxCell id="O51l1rBWcZ_XtODOmQuy-2" value="" style="edgeStyle=orthogonalEdgeStyle;rounded=0;orthogonalLoop=1;jettySize=auto;html=1;" edge="1" parent="1" source="O51l1rBWcZ_XtODOmQuy-3" target="O51l1rBWcZ_XtODOmQuy-5">
          <mxGeometry relative="1" as="geometry" />
        </mxCell>
        <mxCell id="O51l1rBWcZ_XtODOmQuy-3" value="void fill_arr(int* arr, int size, string filename)" style="shape=process;whiteSpace=wrap;html=1;backgroundOutline=1;size=0.043478260869565216;" vertex="1" parent="1">
          <mxGeometry x="270" y="40" width="260" height="40" as="geometry" />
        </mxCell>
        <mxCell id="O51l1rBWcZ_XtODOmQuy-4" value="" style="edgeStyle=orthogonalEdgeStyle;rounded=0;orthogonalLoop=1;jettySize=auto;html=1;" edge="1" parent="1" source="O51l1rBWcZ_XtODOmQuy-5" target="O51l1rBWcZ_XtODOmQuy-9">
          <mxGeometry relative="1" as="geometry" />
        </mxCell>
        <mxCell id="O51l1rBWcZ_XtODOmQuy-5" value="ifstream fin(filename);" style="whiteSpace=wrap;html=1;" vertex="1" parent="1">
          <mxGeometry x="340" y="120" width="120" height="40" as="geometry" />
        </mxCell>
        <mxCell id="O51l1rBWcZ_XtODOmQuy-6" value="{" style="text;html=1;align=center;verticalAlign=middle;resizable=0;points=[];autosize=1;strokeColor=none;fillColor=none;" vertex="1" parent="1">
          <mxGeometry x="370" y="80" width="30" height="30" as="geometry" />
        </mxCell>
        <mxCell id="O51l1rBWcZ_XtODOmQuy-7" value="" style="edgeStyle=orthogonalEdgeStyle;rounded=0;orthogonalLoop=1;jettySize=auto;html=1;" edge="1" parent="1" source="O51l1rBWcZ_XtODOmQuy-9" target="O51l1rBWcZ_XtODOmQuy-12">
          <mxGeometry relative="1" as="geometry" />
        </mxCell>
        <mxCell id="O51l1rBWcZ_XtODOmQuy-8" value="" style="edgeStyle=orthogonalEdgeStyle;rounded=0;orthogonalLoop=1;jettySize=auto;html=1;" edge="1" parent="1" source="O51l1rBWcZ_XtODOmQuy-9" target="O51l1rBWcZ_XtODOmQuy-14">
          <mxGeometry relative="1" as="geometry" />
        </mxCell>
        <mxCell id="O51l1rBWcZ_XtODOmQuy-9" value="for (int i = 0; i &amp;lt; size; i++)" style="shape=hexagon;perimeter=hexagonPerimeter2;whiteSpace=wrap;html=1;fixedSize=1;" vertex="1" parent="1">
          <mxGeometry x="320" y="180" width="160" height="40" as="geometry" />
        </mxCell>
        <mxCell id="O51l1rBWcZ_XtODOmQuy-10" value="1" style="text;html=1;align=center;verticalAlign=middle;resizable=0;points=[];autosize=1;strokeColor=none;fillColor=none;" vertex="1" parent="1">
          <mxGeometry x="399" y="230" width="30" height="30" as="geometry" />
        </mxCell>
        <mxCell id="O51l1rBWcZ_XtODOmQuy-11" style="edgeStyle=orthogonalEdgeStyle;rounded=0;orthogonalLoop=1;jettySize=auto;html=1;entryX=0;entryY=0.5;entryDx=0;entryDy=0;" edge="1" parent="1" source="O51l1rBWcZ_XtODOmQuy-12" target="O51l1rBWcZ_XtODOmQuy-9">
          <mxGeometry relative="1" as="geometry">
            <Array as="points">
              <mxPoint x="400" y="320" />
              <mxPoint x="300" y="320" />
              <mxPoint x="300" y="200" />
            </Array>
          </mxGeometry>
        </mxCell>
        <mxCell id="O51l1rBWcZ_XtODOmQuy-12" value="fin &amp;gt;&amp;gt; arr[i];" style="shape=parallelogram;perimeter=parallelogramPerimeter;whiteSpace=wrap;html=1;fixedSize=1;" vertex="1" parent="1">
          <mxGeometry x="340" y="260" width="120" height="40" as="geometry" />
        </mxCell>
        <mxCell id="O51l1rBWcZ_XtODOmQuy-13" style="edgeStyle=orthogonalEdgeStyle;rounded=0;orthogonalLoop=1;jettySize=auto;html=1;entryX=0.5;entryY=0;entryDx=0;entryDy=0;" edge="1" parent="1" source="O51l1rBWcZ_XtODOmQuy-14" target="O51l1rBWcZ_XtODOmQuy-16">
          <mxGeometry relative="1" as="geometry" />
        </mxCell>
        <mxCell id="O51l1rBWcZ_XtODOmQuy-14" value="fin.close();" style="whiteSpace=wrap;html=1;" vertex="1" parent="1">
          <mxGeometry x="500" y="240" width="120" height="40" as="geometry" />
        </mxCell>
        <mxCell id="O51l1rBWcZ_XtODOmQuy-15" value="0" style="text;html=1;align=center;verticalAlign=middle;resizable=0;points=[];autosize=1;strokeColor=none;fillColor=none;" vertex="1" parent="1">
          <mxGeometry x="535" y="168" width="30" height="30" as="geometry" />
        </mxCell>
        <mxCell id="O51l1rBWcZ_XtODOmQuy-16" value="return;" style="ellipse;whiteSpace=wrap;html=1;" vertex="1" parent="1">
          <mxGeometry x="500" y="300" width="120" height="40" as="geometry" />
        </mxCell>
        <mxCell id="O51l1rBWcZ_XtODOmQuy-17" value="}" style="text;html=1;align=center;verticalAlign=middle;resizable=0;points=[];autosize=1;strokeColor=none;fillColor=none;" vertex="1" parent="1">
          <mxGeometry x="560" y="340" width="30" height="30" as="geometry" />
        </mxCell>
      </root>
    </mxGraphModel>
  </diagram>
  <diagram id="3qLY3zkcRQQzhTw9l_YF" name="arr_to_file">
    <mxGraphModel dx="1290" dy="717" grid="1" gridSize="10" guides="1" tooltips="1" connect="1" arrows="1" fold="1" page="1" pageScale="1" pageWidth="827" pageHeight="1169" math="0" shadow="0">
      <root>
        <mxCell id="0" />
        <mxCell id="1" parent="0" />
        <mxCell id="GwqUNVFLdTND6MXfpKTM-1" value="" style="edgeStyle=orthogonalEdgeStyle;rounded=0;orthogonalLoop=1;jettySize=auto;html=1;" edge="1" parent="1" source="GwqUNVFLdTND6MXfpKTM-2" target="GwqUNVFLdTND6MXfpKTM-4">
          <mxGeometry relative="1" as="geometry" />
        </mxCell>
        <mxCell id="GwqUNVFLdTND6MXfpKTM-2" value="void arr_to_file(int* arr, int size, string filename)" style="shape=process;whiteSpace=wrap;html=1;backgroundOutline=1;size=0.03571428571428571;" vertex="1" parent="1">
          <mxGeometry x="260" y="40" width="280" height="40" as="geometry" />
        </mxCell>
        <mxCell id="GwqUNVFLdTND6MXfpKTM-3" value="" style="edgeStyle=orthogonalEdgeStyle;rounded=0;orthogonalLoop=1;jettySize=auto;html=1;" edge="1" parent="1" source="GwqUNVFLdTND6MXfpKTM-4" target="GwqUNVFLdTND6MXfpKTM-8">
          <mxGeometry relative="1" as="geometry" />
        </mxCell>
        <mxCell id="GwqUNVFLdTND6MXfpKTM-4" value="ofstream fout(filename);" style="whiteSpace=wrap;html=1;" vertex="1" parent="1">
          <mxGeometry x="330" y="120" width="140" height="40" as="geometry" />
        </mxCell>
        <mxCell id="GwqUNVFLdTND6MXfpKTM-5" value="{" style="text;html=1;align=center;verticalAlign=middle;resizable=0;points=[];autosize=1;strokeColor=none;fillColor=none;" vertex="1" parent="1">
          <mxGeometry x="370" y="80" width="30" height="30" as="geometry" />
        </mxCell>
        <mxCell id="GwqUNVFLdTND6MXfpKTM-6" value="" style="edgeStyle=orthogonalEdgeStyle;rounded=0;orthogonalLoop=1;jettySize=auto;html=1;" edge="1" parent="1" source="GwqUNVFLdTND6MXfpKTM-8" target="GwqUNVFLdTND6MXfpKTM-10">
          <mxGeometry relative="1" as="geometry" />
        </mxCell>
        <mxCell id="GwqUNVFLdTND6MXfpKTM-7" value="" style="edgeStyle=orthogonalEdgeStyle;rounded=0;orthogonalLoop=1;jettySize=auto;html=1;" edge="1" parent="1" source="GwqUNVFLdTND6MXfpKTM-8" target="GwqUNVFLdTND6MXfpKTM-13">
          <mxGeometry relative="1" as="geometry" />
        </mxCell>
        <mxCell id="GwqUNVFLdTND6MXfpKTM-8" value="for (int i = 0; i &amp;lt; size; i++)" style="shape=hexagon;perimeter=hexagonPerimeter2;whiteSpace=wrap;html=1;fixedSize=1;" vertex="1" parent="1">
          <mxGeometry x="320" y="180" width="160" height="40" as="geometry" />
        </mxCell>
        <mxCell id="GwqUNVFLdTND6MXfpKTM-9" style="edgeStyle=orthogonalEdgeStyle;rounded=0;orthogonalLoop=1;jettySize=auto;html=1;entryX=0;entryY=0.5;entryDx=0;entryDy=0;" edge="1" parent="1" source="GwqUNVFLdTND6MXfpKTM-10" target="GwqUNVFLdTND6MXfpKTM-8">
          <mxGeometry relative="1" as="geometry">
            <Array as="points">
              <mxPoint x="400" y="320" />
              <mxPoint x="300" y="320" />
              <mxPoint x="300" y="200" />
            </Array>
          </mxGeometry>
        </mxCell>
        <mxCell id="GwqUNVFLdTND6MXfpKTM-10" value="fout &amp;lt;&amp;lt; arr[i] &amp;lt;&amp;lt; &#39; &#39;;" style="shape=parallelogram;perimeter=parallelogramPerimeter;whiteSpace=wrap;html=1;fixedSize=1;" vertex="1" parent="1">
          <mxGeometry x="330" y="260" width="140" height="40" as="geometry" />
        </mxCell>
        <mxCell id="GwqUNVFLdTND6MXfpKTM-11" value="1" style="text;html=1;align=center;verticalAlign=middle;resizable=0;points=[];autosize=1;strokeColor=none;fillColor=none;" vertex="1" parent="1">
          <mxGeometry x="400" y="230" width="30" height="30" as="geometry" />
        </mxCell>
        <mxCell id="GwqUNVFLdTND6MXfpKTM-12" style="edgeStyle=orthogonalEdgeStyle;rounded=0;orthogonalLoop=1;jettySize=auto;html=1;entryX=0.5;entryY=0;entryDx=0;entryDy=0;" edge="1" parent="1" source="GwqUNVFLdTND6MXfpKTM-13" target="GwqUNVFLdTND6MXfpKTM-15">
          <mxGeometry relative="1" as="geometry" />
        </mxCell>
        <mxCell id="GwqUNVFLdTND6MXfpKTM-13" value="fout.close();" style="whiteSpace=wrap;html=1;" vertex="1" parent="1">
          <mxGeometry x="520" y="240" width="120" height="40" as="geometry" />
        </mxCell>
        <mxCell id="GwqUNVFLdTND6MXfpKTM-14" value="0" style="text;html=1;align=center;verticalAlign=middle;resizable=0;points=[];autosize=1;strokeColor=none;fillColor=none;" vertex="1" parent="1">
          <mxGeometry x="555" y="178" width="30" height="30" as="geometry" />
        </mxCell>
        <mxCell id="GwqUNVFLdTND6MXfpKTM-15" value="return;" style="ellipse;whiteSpace=wrap;html=1;" vertex="1" parent="1">
          <mxGeometry x="520" y="300" width="120" height="40" as="geometry" />
        </mxCell>
        <mxCell id="M8JgnEgIv5dwxRKuosTO-1" value="}" style="text;html=1;align=center;verticalAlign=middle;resizable=0;points=[];autosize=1;strokeColor=none;fillColor=none;" vertex="1" parent="1">
          <mxGeometry x="575" y="338" width="30" height="30" as="geometry" />
        </mxCell>
      </root>
    </mxGraphModel>
  </diagram>
  <diagram id="BU_1pGeUd1p_ty6gSQpa" name="merge">
    <mxGraphModel dx="1290" dy="717" grid="1" gridSize="10" guides="1" tooltips="1" connect="1" arrows="1" fold="1" page="1" pageScale="1" pageWidth="827" pageHeight="1169" math="0" shadow="0">
      <root>
        <mxCell id="0" />
        <mxCell id="1" parent="0" />
        <mxCell id="iMoZDpYqH7rXJs12hCv5-1" value="" style="edgeStyle=orthogonalEdgeStyle;rounded=0;orthogonalLoop=1;jettySize=auto;html=1;" edge="1" parent="1" source="iMoZDpYqH7rXJs12hCv5-2" target="iMoZDpYqH7rXJs12hCv5-4">
          <mxGeometry relative="1" as="geometry" />
        </mxCell>
        <mxCell id="iMoZDpYqH7rXJs12hCv5-2" value="void merge(int* arr, int start, int end, int mid)" style="shape=process;whiteSpace=wrap;html=1;backgroundOutline=1;size=0.04;" vertex="1" parent="1">
          <mxGeometry x="270" y="80" width="260" height="40" as="geometry" />
        </mxCell>
        <mxCell id="iMoZDpYqH7rXJs12hCv5-3" value="" style="edgeStyle=orthogonalEdgeStyle;rounded=0;orthogonalLoop=1;jettySize=auto;html=1;" edge="1" parent="1" source="iMoZDpYqH7rXJs12hCv5-4" target="iMoZDpYqH7rXJs12hCv5-7">
          <mxGeometry relative="1" as="geometry" />
        </mxCell>
        <mxCell id="iMoZDpYqH7rXJs12hCv5-4" value="int left = start;" style="whiteSpace=wrap;html=1;" vertex="1" parent="1">
          <mxGeometry x="340" y="160" width="120" height="40" as="geometry" />
        </mxCell>
        <mxCell id="iMoZDpYqH7rXJs12hCv5-5" value="{" style="text;html=1;align=center;verticalAlign=middle;resizable=0;points=[];autosize=1;strokeColor=none;fillColor=none;" vertex="1" parent="1">
          <mxGeometry x="370" y="120" width="30" height="30" as="geometry" />
        </mxCell>
        <mxCell id="iMoZDpYqH7rXJs12hCv5-6" value="" style="edgeStyle=orthogonalEdgeStyle;rounded=0;orthogonalLoop=1;jettySize=auto;html=1;" edge="1" parent="1" source="iMoZDpYqH7rXJs12hCv5-7" target="iMoZDpYqH7rXJs12hCv5-9">
          <mxGeometry relative="1" as="geometry" />
        </mxCell>
        <mxCell id="iMoZDpYqH7rXJs12hCv5-7" value="int right = mid + 1;" style="whiteSpace=wrap;html=1;" vertex="1" parent="1">
          <mxGeometry x="340" y="220" width="120" height="40" as="geometry" />
        </mxCell>
        <mxCell id="iMoZDpYqH7rXJs12hCv5-8" value="" style="edgeStyle=orthogonalEdgeStyle;rounded=0;orthogonalLoop=1;jettySize=auto;html=1;" edge="1" parent="1" source="iMoZDpYqH7rXJs12hCv5-9" target="iMoZDpYqH7rXJs12hCv5-11">
          <mxGeometry relative="1" as="geometry" />
        </mxCell>
        <mxCell id="iMoZDpYqH7rXJs12hCv5-9" value="int len = end - start + 1;" style="whiteSpace=wrap;html=1;" vertex="1" parent="1">
          <mxGeometry x="335" y="280" width="130" height="40" as="geometry" />
        </mxCell>
        <mxCell id="iMoZDpYqH7rXJs12hCv5-10" value="" style="edgeStyle=orthogonalEdgeStyle;rounded=0;orthogonalLoop=1;jettySize=auto;html=1;" edge="1" parent="1" source="iMoZDpYqH7rXJs12hCv5-11" target="iMoZDpYqH7rXJs12hCv5-14">
          <mxGeometry relative="1" as="geometry" />
        </mxCell>
        <mxCell id="iMoZDpYqH7rXJs12hCv5-11" value="int* merge_arr = new int[len];" style="whiteSpace=wrap;html=1;" vertex="1" parent="1">
          <mxGeometry x="312.5" y="340" width="175" height="40" as="geometry" />
        </mxCell>
        <mxCell id="iMoZDpYqH7rXJs12hCv5-12" value="" style="edgeStyle=orthogonalEdgeStyle;rounded=0;orthogonalLoop=1;jettySize=auto;html=1;" edge="1" parent="1" source="iMoZDpYqH7rXJs12hCv5-14" target="iMoZDpYqH7rXJs12hCv5-17">
          <mxGeometry relative="1" as="geometry" />
        </mxCell>
        <mxCell id="iMoZDpYqH7rXJs12hCv5-13" style="edgeStyle=orthogonalEdgeStyle;rounded=0;orthogonalLoop=1;jettySize=auto;html=1;entryX=0.5;entryY=0;entryDx=0;entryDy=0;" edge="1" parent="1" source="iMoZDpYqH7rXJs12hCv5-14" target="iMoZDpYqH7rXJs12hCv5-28">
          <mxGeometry relative="1" as="geometry">
            <mxPoint x="400" y="680" as="targetPoint" />
            <Array as="points">
              <mxPoint x="720" y="420" />
              <mxPoint x="720" y="660" />
              <mxPoint x="400" y="660" />
              <mxPoint x="400" y="680" />
            </Array>
          </mxGeometry>
        </mxCell>
        <mxCell id="iMoZDpYqH7rXJs12hCv5-14" value="for (int i = 0; i &amp;lt; len; i++)" style="shape=hexagon;perimeter=hexagonPerimeter2;whiteSpace=wrap;html=1;fixedSize=1;" vertex="1" parent="1">
          <mxGeometry x="325" y="400" width="150" height="40" as="geometry" />
        </mxCell>
        <mxCell id="iMoZDpYqH7rXJs12hCv5-15" value="" style="edgeStyle=orthogonalEdgeStyle;rounded=0;orthogonalLoop=1;jettySize=auto;html=1;entryX=0.5;entryY=0;entryDx=0;entryDy=0;exitX=0;exitY=0.5;exitDx=0;exitDy=0;" edge="1" parent="1" source="iMoZDpYqH7rXJs12hCv5-17" target="iMoZDpYqH7rXJs12hCv5-20">
          <mxGeometry relative="1" as="geometry" />
        </mxCell>
        <mxCell id="iMoZDpYqH7rXJs12hCv5-16" value="" style="edgeStyle=orthogonalEdgeStyle;rounded=0;orthogonalLoop=1;jettySize=auto;html=1;exitX=1;exitY=0.5;exitDx=0;exitDy=0;" edge="1" parent="1" source="iMoZDpYqH7rXJs12hCv5-17" target="iMoZDpYqH7rXJs12hCv5-22">
          <mxGeometry relative="1" as="geometry" />
        </mxCell>
        <mxCell id="iMoZDpYqH7rXJs12hCv5-17" value="if (left &amp;lt;= mid &amp;amp;&amp;amp; (right &amp;gt; end || arr[left] &amp;lt; arr[right]))" style="rhombus;whiteSpace=wrap;html=1;" vertex="1" parent="1">
          <mxGeometry x="240" y="480" width="320" height="80" as="geometry" />
        </mxCell>
        <mxCell id="iMoZDpYqH7rXJs12hCv5-18" value="1" style="text;html=1;align=center;verticalAlign=middle;resizable=0;points=[];autosize=1;strokeColor=none;fillColor=none;" vertex="1" parent="1">
          <mxGeometry x="400" y="450" width="30" height="30" as="geometry" />
        </mxCell>
        <mxCell id="iMoZDpYqH7rXJs12hCv5-19" style="edgeStyle=orthogonalEdgeStyle;rounded=0;orthogonalLoop=1;jettySize=auto;html=1;exitX=0.5;exitY=1;exitDx=0;exitDy=0;" edge="1" parent="1" source="iMoZDpYqH7rXJs12hCv5-20">
          <mxGeometry relative="1" as="geometry">
            <mxPoint x="400" y="620" as="targetPoint" />
            <Array as="points">
              <mxPoint x="181" y="620" />
            </Array>
          </mxGeometry>
        </mxCell>
        <mxCell id="iMoZDpYqH7rXJs12hCv5-20" value="merge_arr[i] = arr[left++];" style="whiteSpace=wrap;html=1;" vertex="1" parent="1">
          <mxGeometry x="102.68" y="560" width="157.32" height="40" as="geometry" />
        </mxCell>
        <mxCell id="iMoZDpYqH7rXJs12hCv5-21" style="edgeStyle=orthogonalEdgeStyle;rounded=0;orthogonalLoop=1;jettySize=auto;html=1;" edge="1" parent="1" source="iMoZDpYqH7rXJs12hCv5-22">
          <mxGeometry relative="1" as="geometry">
            <mxPoint x="400" y="620" as="targetPoint" />
            <Array as="points">
              <mxPoint x="620" y="620" />
            </Array>
          </mxGeometry>
        </mxCell>
        <mxCell id="iMoZDpYqH7rXJs12hCv5-22" value="merge_arr[i] = arr[right++];" style="whiteSpace=wrap;html=1;" vertex="1" parent="1">
          <mxGeometry x="540" y="555" width="160" height="45" as="geometry" />
        </mxCell>
        <mxCell id="iMoZDpYqH7rXJs12hCv5-23" value="1" style="text;html=1;align=center;verticalAlign=middle;resizable=0;points=[];autosize=1;strokeColor=none;fillColor=none;" vertex="1" parent="1">
          <mxGeometry x="180" y="490" width="30" height="30" as="geometry" />
        </mxCell>
        <mxCell id="iMoZDpYqH7rXJs12hCv5-24" value="0" style="text;html=1;align=center;verticalAlign=middle;resizable=0;points=[];autosize=1;strokeColor=none;fillColor=none;" vertex="1" parent="1">
          <mxGeometry x="595" y="490" width="30" height="30" as="geometry" />
        </mxCell>
        <mxCell id="iMoZDpYqH7rXJs12hCv5-25" value="" style="endArrow=classic;html=1;rounded=0;entryX=0;entryY=0.5;entryDx=0;entryDy=0;" edge="1" parent="1" target="iMoZDpYqH7rXJs12hCv5-14">
          <mxGeometry width="50" height="50" relative="1" as="geometry">
            <mxPoint x="400" y="620" as="sourcePoint" />
            <mxPoint x="230" y="410" as="targetPoint" />
            <Array as="points">
              <mxPoint x="400" y="640" />
              <mxPoint x="80" y="640" />
              <mxPoint x="80" y="420" />
            </Array>
          </mxGeometry>
        </mxCell>
        <mxCell id="iMoZDpYqH7rXJs12hCv5-26" value="0" style="text;html=1;align=center;verticalAlign=middle;resizable=0;points=[];autosize=1;strokeColor=none;fillColor=none;" vertex="1" parent="1">
          <mxGeometry x="690" y="390" width="30" height="30" as="geometry" />
        </mxCell>
        <mxCell id="iMoZDpYqH7rXJs12hCv5-27" value="" style="edgeStyle=orthogonalEdgeStyle;rounded=0;orthogonalLoop=1;jettySize=auto;html=1;" edge="1" parent="1" source="iMoZDpYqH7rXJs12hCv5-28" target="iMoZDpYqH7rXJs12hCv5-31">
          <mxGeometry relative="1" as="geometry" />
        </mxCell>
        <mxCell id="iMoZDpYqH7rXJs12hCv5-28" value="int ind = start;" style="rounded=0;whiteSpace=wrap;html=1;" vertex="1" parent="1">
          <mxGeometry x="340" y="680" width="120" height="40" as="geometry" />
        </mxCell>
        <mxCell id="iMoZDpYqH7rXJs12hCv5-29" value="" style="edgeStyle=orthogonalEdgeStyle;rounded=0;orthogonalLoop=1;jettySize=auto;html=1;" edge="1" parent="1" source="iMoZDpYqH7rXJs12hCv5-31" target="iMoZDpYqH7rXJs12hCv5-33">
          <mxGeometry relative="1" as="geometry" />
        </mxCell>
        <mxCell id="iMoZDpYqH7rXJs12hCv5-30" style="edgeStyle=orthogonalEdgeStyle;rounded=0;orthogonalLoop=1;jettySize=auto;html=1;" edge="1" parent="1" source="iMoZDpYqH7rXJs12hCv5-31" target="iMoZDpYqH7rXJs12hCv5-37">
          <mxGeometry relative="1" as="geometry">
            <mxPoint x="400" y="920" as="targetPoint" />
            <Array as="points">
              <mxPoint x="510" y="760" />
              <mxPoint x="510" y="900" />
              <mxPoint x="400" y="900" />
            </Array>
          </mxGeometry>
        </mxCell>
        <mxCell id="iMoZDpYqH7rXJs12hCv5-31" value="for (int i = 0; i &amp;lt; len; i++)" style="shape=hexagon;perimeter=hexagonPerimeter2;whiteSpace=wrap;html=1;fixedSize=1;rounded=0;" vertex="1" parent="1">
          <mxGeometry x="325" y="740" width="150" height="40" as="geometry" />
        </mxCell>
        <mxCell id="iMoZDpYqH7rXJs12hCv5-32" style="edgeStyle=orthogonalEdgeStyle;rounded=0;orthogonalLoop=1;jettySize=auto;html=1;entryX=0;entryY=0.5;entryDx=0;entryDy=0;" edge="1" parent="1" source="iMoZDpYqH7rXJs12hCv5-33" target="iMoZDpYqH7rXJs12hCv5-31">
          <mxGeometry relative="1" as="geometry">
            <Array as="points">
              <mxPoint x="400" y="880" />
              <mxPoint x="305" y="880" />
              <mxPoint x="305" y="760" />
            </Array>
          </mxGeometry>
        </mxCell>
        <mxCell id="iMoZDpYqH7rXJs12hCv5-33" value="arr[ind++] = merge_arr[i];" style="whiteSpace=wrap;html=1;rounded=0;" vertex="1" parent="1">
          <mxGeometry x="330" y="820" width="140" height="40" as="geometry" />
        </mxCell>
        <mxCell id="iMoZDpYqH7rXJs12hCv5-34" value="1" style="text;html=1;align=center;verticalAlign=middle;resizable=0;points=[];autosize=1;strokeColor=none;fillColor=none;" vertex="1" parent="1">
          <mxGeometry x="400" y="790" width="30" height="30" as="geometry" />
        </mxCell>
        <mxCell id="iMoZDpYqH7rXJs12hCv5-35" value="0" style="text;html=1;align=center;verticalAlign=middle;resizable=0;points=[];autosize=1;strokeColor=none;fillColor=none;" vertex="1" parent="1">
          <mxGeometry x="487.5" y="730" width="30" height="30" as="geometry" />
        </mxCell>
        <mxCell id="iMoZDpYqH7rXJs12hCv5-36" style="edgeStyle=orthogonalEdgeStyle;rounded=0;orthogonalLoop=1;jettySize=auto;html=1;entryX=0.5;entryY=0;entryDx=0;entryDy=0;" edge="1" parent="1" source="iMoZDpYqH7rXJs12hCv5-37" target="iMoZDpYqH7rXJs12hCv5-38">
          <mxGeometry relative="1" as="geometry" />
        </mxCell>
        <mxCell id="iMoZDpYqH7rXJs12hCv5-37" value="delete[] merge_arr;" style="rounded=0;whiteSpace=wrap;html=1;" vertex="1" parent="1">
          <mxGeometry x="340" y="920" width="120" height="40" as="geometry" />
        </mxCell>
        <mxCell id="iMoZDpYqH7rXJs12hCv5-38" value="return;" style="ellipse;whiteSpace=wrap;html=1;" vertex="1" parent="1">
          <mxGeometry x="340" y="980" width="120" height="40" as="geometry" />
        </mxCell>
        <mxCell id="iMoZDpYqH7rXJs12hCv5-39" value="}" style="text;html=1;align=center;verticalAlign=middle;resizable=0;points=[];autosize=1;strokeColor=none;fillColor=none;" vertex="1" parent="1">
          <mxGeometry x="400" y="1020" width="30" height="30" as="geometry" />
        </mxCell>
      </root>
    </mxGraphModel>
  </diagram>
  <diagram id="rhhMUVwmk1WlSo2aCcT4" name="balanced_sort">
    <mxGraphModel dx="1173" dy="652" grid="1" gridSize="10" guides="1" tooltips="1" connect="1" arrows="1" fold="1" page="1" pageScale="1" pageWidth="827" pageHeight="1169" math="0" shadow="0">
      <root>
        <mxCell id="0" />
        <mxCell id="1" parent="0" />
        <mxCell id="yUrVU-qP5EH7cfqLuQ3y-3" value="" style="edgeStyle=orthogonalEdgeStyle;rounded=0;orthogonalLoop=1;jettySize=auto;html=1;" edge="1" parent="1" source="yUrVU-qP5EH7cfqLuQ3y-1" target="yUrVU-qP5EH7cfqLuQ3y-2">
          <mxGeometry relative="1" as="geometry" />
        </mxCell>
        <mxCell id="yUrVU-qP5EH7cfqLuQ3y-1" value="void balanced_sort(int* arr, int start, int end)" style="shape=process;whiteSpace=wrap;html=1;backgroundOutline=1;size=0.038461538461538464;" vertex="1" parent="1">
          <mxGeometry x="270" y="40" width="260" height="40" as="geometry" />
        </mxCell>
        <mxCell id="V67rIo8F-XOAqm0g5mlY-2" style="edgeStyle=orthogonalEdgeStyle;rounded=0;orthogonalLoop=1;jettySize=auto;html=1;entryX=0.5;entryY=0;entryDx=0;entryDy=0;" edge="1" parent="1" source="yUrVU-qP5EH7cfqLuQ3y-2" target="V67rIo8F-XOAqm0g5mlY-1">
          <mxGeometry relative="1" as="geometry">
            <Array as="points">
              <mxPoint x="280" y="140" />
            </Array>
          </mxGeometry>
        </mxCell>
        <mxCell id="V67rIo8F-XOAqm0g5mlY-5" style="edgeStyle=orthogonalEdgeStyle;rounded=0;orthogonalLoop=1;jettySize=auto;html=1;" edge="1" parent="1" source="yUrVU-qP5EH7cfqLuQ3y-2">
          <mxGeometry relative="1" as="geometry">
            <mxPoint x="400" y="219.9999999999999" as="targetPoint" />
            <Array as="points">
              <mxPoint x="500" y="140" />
              <mxPoint x="500" y="220" />
            </Array>
          </mxGeometry>
        </mxCell>
        <mxCell id="yUrVU-qP5EH7cfqLuQ3y-2" value="if (start &amp;gt;= end)" style="rhombus;whiteSpace=wrap;html=1;" vertex="1" parent="1">
          <mxGeometry x="330" y="120" width="140" height="40" as="geometry" />
        </mxCell>
        <mxCell id="yUrVU-qP5EH7cfqLuQ3y-4" value="{" style="text;html=1;align=center;verticalAlign=middle;resizable=0;points=[];autosize=1;strokeColor=none;fillColor=none;" vertex="1" parent="1">
          <mxGeometry x="375" y="80" width="30" height="30" as="geometry" />
        </mxCell>
        <mxCell id="V67rIo8F-XOAqm0g5mlY-3" style="edgeStyle=orthogonalEdgeStyle;rounded=0;orthogonalLoop=1;jettySize=auto;html=1;" edge="1" parent="1" source="V67rIo8F-XOAqm0g5mlY-1">
          <mxGeometry relative="1" as="geometry">
            <mxPoint x="400" y="219.9999999999999" as="targetPoint" />
            <Array as="points">
              <mxPoint x="280" y="220" />
            </Array>
          </mxGeometry>
        </mxCell>
        <mxCell id="V67rIo8F-XOAqm0g5mlY-1" value="return;" style="ellipse;whiteSpace=wrap;html=1;" vertex="1" parent="1">
          <mxGeometry x="220" y="160" width="120" height="40" as="geometry" />
        </mxCell>
        <mxCell id="V67rIo8F-XOAqm0g5mlY-4" value="1" style="text;html=1;align=center;verticalAlign=middle;resizable=0;points=[];autosize=1;strokeColor=none;fillColor=none;" vertex="1" parent="1">
          <mxGeometry x="275" y="118" width="30" height="30" as="geometry" />
        </mxCell>
        <mxCell id="V67rIo8F-XOAqm0g5mlY-6" value="0" style="text;html=1;align=center;verticalAlign=middle;resizable=0;points=[];autosize=1;strokeColor=none;fillColor=none;" vertex="1" parent="1">
          <mxGeometry x="475" y="118" width="30" height="30" as="geometry" />
        </mxCell>
        <mxCell id="V67rIo8F-XOAqm0g5mlY-7" value="" style="endArrow=classic;html=1;rounded=0;" edge="1" parent="1" target="V67rIo8F-XOAqm0g5mlY-8">
          <mxGeometry width="50" height="50" relative="1" as="geometry">
            <mxPoint x="400" y="220" as="sourcePoint" />
            <mxPoint x="400" y="240" as="targetPoint" />
          </mxGeometry>
        </mxCell>
        <mxCell id="V67rIo8F-XOAqm0g5mlY-10" value="" style="edgeStyle=orthogonalEdgeStyle;rounded=0;orthogonalLoop=1;jettySize=auto;html=1;" edge="1" parent="1" source="V67rIo8F-XOAqm0g5mlY-8" target="V67rIo8F-XOAqm0g5mlY-9">
          <mxGeometry relative="1" as="geometry" />
        </mxCell>
        <mxCell id="V67rIo8F-XOAqm0g5mlY-8" value="int mid = (start + end) / 2;" style="rounded=0;whiteSpace=wrap;html=1;" vertex="1" parent="1">
          <mxGeometry x="325" y="240" width="150" height="40" as="geometry" />
        </mxCell>
        <mxCell id="V67rIo8F-XOAqm0g5mlY-12" value="" style="edgeStyle=orthogonalEdgeStyle;rounded=0;orthogonalLoop=1;jettySize=auto;html=1;" edge="1" parent="1" source="V67rIo8F-XOAqm0g5mlY-9" target="V67rIo8F-XOAqm0g5mlY-11">
          <mxGeometry relative="1" as="geometry" />
        </mxCell>
        <mxCell id="V67rIo8F-XOAqm0g5mlY-9" value="balanced_sort(arr, start, mid);" style="rounded=0;whiteSpace=wrap;html=1;" vertex="1" parent="1">
          <mxGeometry x="312.5" y="300" width="175" height="40" as="geometry" />
        </mxCell>
        <mxCell id="V67rIo8F-XOAqm0g5mlY-14" value="" style="edgeStyle=orthogonalEdgeStyle;rounded=0;orthogonalLoop=1;jettySize=auto;html=1;" edge="1" parent="1" source="V67rIo8F-XOAqm0g5mlY-11" target="V67rIo8F-XOAqm0g5mlY-13">
          <mxGeometry relative="1" as="geometry" />
        </mxCell>
        <mxCell id="V67rIo8F-XOAqm0g5mlY-11" value="balanced_sort(arr, mid + 1, end);" style="rounded=0;whiteSpace=wrap;html=1;" vertex="1" parent="1">
          <mxGeometry x="301.25" y="360" width="197.5" height="40" as="geometry" />
        </mxCell>
        <mxCell id="V67rIo8F-XOAqm0g5mlY-16" style="edgeStyle=orthogonalEdgeStyle;rounded=0;orthogonalLoop=1;jettySize=auto;html=1;entryX=0.5;entryY=0;entryDx=0;entryDy=0;" edge="1" parent="1" source="V67rIo8F-XOAqm0g5mlY-13" target="V67rIo8F-XOAqm0g5mlY-15">
          <mxGeometry relative="1" as="geometry" />
        </mxCell>
        <mxCell id="V67rIo8F-XOAqm0g5mlY-13" value="merge(arr, start, end, mid);" style="rounded=0;whiteSpace=wrap;html=1;" vertex="1" parent="1">
          <mxGeometry x="301.25" y="420" width="197.5" height="40" as="geometry" />
        </mxCell>
        <mxCell id="V67rIo8F-XOAqm0g5mlY-15" value="return;" style="ellipse;whiteSpace=wrap;html=1;" vertex="1" parent="1">
          <mxGeometry x="340" y="480" width="120" height="40" as="geometry" />
        </mxCell>
        <mxCell id="V67rIo8F-XOAqm0g5mlY-17" value="}" style="text;html=1;align=center;verticalAlign=middle;resizable=0;points=[];autosize=1;strokeColor=none;fillColor=none;" vertex="1" parent="1">
          <mxGeometry x="399" y="520" width="30" height="30" as="geometry" />
        </mxCell>
      </root>
    </mxGraphModel>
  </diagram>
</mxfile>
